<svg id="visual" viewBox="0 0 1980 1693.44" width="1980" height="1693.44" xmlns="http://www.w3.org/2000/svg" xmlns:xlink="http://www.w3.org/1999/xlink" version="1.1"><rect x="0" y="0" width="1980" height="1693.44" fill="#FFF"></rect><g transform="translate(943.4835004028246 790.6654626649632)"><path d="M308.5 -390.3C417.6 -345.4 535.9 -279 620.3 -166.8C704.6 -54.5 755 103.6 714.8 233.8C674.6 364 543.9 466.4 409.7 518.3C275.5 570.2 137.7 571.6 4.2 565.8C-129.3 560 -258.6 547 -384.6 492.4C-510.7 437.9 -633.4 341.8 -635.8 231C-638.3 120.2 -520.5 -5.3 -442.3 -112.1C-364 -218.8 -325.4 -306.8 -258.3 -365.3C-191.2 -423.9 -95.6 -452.9 2.1 -455.8C99.7 -458.6 199.5 -435.2 308.5 -390.3" fill="#A00407"></path></g></svg>