<svg id="visual" viewBox="0 0 1980 300" width="1980" height="300" xmlns="http://www.w3.org/2000/svg" xmlns:xlink="http://www.w3.org/1999/xlink" version="1.1"><rect x="0" y="0" width="1980" height="300" fill="#ffffff"></rect><path d="M0 191L12.2 197.7C24.3 204.3 48.7 217.7 73.2 225.7C97.7 233.7 122.3 236.3 146.8 236C171.3 235.7 195.7 232.3 220 238.7C244.3 245 268.7 261 293.2 270.3C317.7 279.7 342.3 282.3 366.8 275.5C391.3 268.7 415.7 252.3 440 250.8C464.3 249.3 488.7 262.7 513.2 260.7C537.7 258.7 562.3 241.3 586.8 235.5C611.3 229.7 635.7 235.3 660 235.7C684.3 236 708.7 231 733.2 230.3C757.7 229.7 782.3 233.3 806.8 244.3C831.3 255.3 855.7 273.7 880 265.8C904.3 258 928.7 224 953.2 210.3C977.7 196.7 1002.3 203.3 1026.8 206.5C1051.3 209.7 1075.7 209.3 1100 214.2C1124.3 219 1148.7 229 1173.2 236.2C1197.7 243.3 1222.3 247.7 1246.8 239C1271.3 230.3 1295.7 208.7 1320 205.8C1344.3 203 1368.7 219 1393.2 226C1417.7 233 1442.3 231 1466.8 239.5C1491.3 248 1515.7 267 1540 270.7C1564.3 274.3 1588.7 262.7 1613.2 260.7C1637.7 258.7 1662.3 266.3 1686.8 268.5C1711.3 270.7 1735.7 267.3 1760 269.8C1784.3 272.3 1808.7 280.7 1833.2 273.7C1857.7 266.7 1882.3 244.3 1906.8 232.5C1931.3 220.7 1955.7 219.3 1967.8 218.7L1980 218L1980 301L1967.8 301C1955.7 301 1931.3 301 1906.8 301C1882.3 301 1857.7 301 1833.2 301C1808.7 301 1784.3 301 1760 301C1735.7 301 1711.3 301 1686.8 301C1662.3 301 1637.7 301 1613.2 301C1588.7 301 1564.3 301 1540 301C1515.7 301 1491.3 301 1466.8 301C1442.3 301 1417.7 301 1393.2 301C1368.7 301 1344.3 301 1320 301C1295.7 301 1271.3 301 1246.8 301C1222.3 301 1197.7 301 1173.2 301C1148.7 301 1124.3 301 1100 301C1075.7 301 1051.3 301 1026.8 301C1002.3 301 977.7 301 953.2 301C928.7 301 904.3 301 880 301C855.7 301 831.3 301 806.8 301C782.3 301 757.7 301 733.2 301C708.7 301 684.3 301 660 301C635.7 301 611.3 301 586.8 301C562.3 301 537.7 301 513.2 301C488.7 301 464.3 301 440 301C415.7 301 391.3 301 366.8 301C342.3 301 317.7 301 293.2 301C268.7 301 244.3 301 220 301C195.7 301 171.3 301 146.8 301C122.3 301 97.7 301 73.2 301C48.7 301 24.3 301 12.2 301L0 301Z" fill="#a00407" stroke-linecap="round" stroke-linejoin="miter"></path></svg>